<?xml version="1.0" encoding="UTF-8"?>
<svg xmlns="http://www.w3.org/2000/svg" viewBox="0 0 377.51 94.78">
  <defs>
    <style>.cls-1{fill:#fff;}.cls-2{fill:#115978;}</style>
  </defs>
  <g id="Logo">
    <circle class="cls-1" cx="47.39" cy="47.28" r="46.4"></circle>
    <path class="cls-2" d="M68.58,51.13h-2c-1,0-1.42.36-1.41,1a.92.92,0,0,0,.37.73,1.7,1.7,0,0,0,1.17.33A2.78,2.78,0,0,0,68.2,53c.26-.18.38-.58.38-1.21Z" transform="translate(-2.45 -1.53)"></path>
    <path class="cls-2" d="M35.58,45.41a2.39,2.39,0,0,0,.51-1.57,2.56,2.56,0,0,0-.51-1.61A2,2,0,0,0,34,41.59H31.23V46.1H34A1.79,1.79,0,0,0,35.58,45.41Z" transform="translate(-2.45 -1.53)"></path>
    <path class="cls-2" d="M34.21,48.2h-3v4.72h3a1.86,1.86,0,0,0,1.58-.73,2.72,2.72,0,0,0,.5-1.63,2.77,2.77,0,0,0-.5-1.66A1.87,1.87,0,0,0,34.21,48.2Z" transform="translate(-2.45 -1.53)"></path>
    <path class="cls-2" d="M44.77,48.26a1.77,1.77,0,0,0-2.42,0,2.26,2.26,0,0,0-.51,1.48h3.44A2.16,2.16,0,0,0,44.77,48.26Z" transform="translate(-2.45 -1.53)"></path>
    <path class="cls-2" d="M78.29,60.88a1.64,1.64,0,0,0-1.21.48,2.26,2.26,0,0,0-.51,1.48H80a2.16,2.16,0,0,0-.51-1.48A1.64,1.64,0,0,0,78.29,60.88Z" transform="translate(-2.45 -1.53)"></path>
    <path class="cls-2" d="M56.94,60.88a1.64,1.64,0,0,0-1.21.48,2.26,2.26,0,0,0-.51,1.48h3.44a2.16,2.16,0,0,0-.51-1.48A1.64,1.64,0,0,0,56.94,60.88Z" transform="translate(-2.45 -1.53)"></path>
    <path class="cls-2" d="M31.18,60.88a1.64,1.64,0,0,0-1.21.48,2.37,2.37,0,0,0-.51,1.48H32.9a2.16,2.16,0,0,0-.51-1.48A1.62,1.62,0,0,0,31.18,60.88Z" transform="translate(-2.45 -1.53)"></path>
    <path class="cls-2" d="M49.84,1.53A47.39,47.39,0,1,0,97.23,48.92,47.39,47.39,0,0,0,49.84,1.53Zm3.2,39c0,2.28-3.56,2.28-3.53,0A1.77,1.77,0,0,1,53,40.56ZM51.15,34.4c0,2.29-3.55,2.29-3.52,0S51.19,32.11,51.15,34.4Zm-2.23,7.33a1.33,1.33,0,0,1-2.65,0A1.33,1.33,0,0,1,48.92,41.73Zm-1.45-5.1a1.33,1.33,0,0,1-2.65,0A1.33,1.33,0,0,1,47.47,36.63ZM42.4,39.78a1,1,0,0,1-2,0A1,1,0,0,1,42.4,39.78ZM40,34.71a1.11,1.11,0,0,1,2.21,0A1.11,1.11,0,0,1,40,34.71Zm3.36,8.42a1,1,0,0,1-2,0A1,1,0,0,1,43.32,43.13Zm-.79-4.91a1.1,1.1,0,0,1,2.2,0A1.1,1.1,0,0,1,42.53,38.22Zm3.35,4.19a1.11,1.11,0,0,1-2.21,0A1.11,1.11,0,0,1,45.88,42.41Zm1.27-13.08c0,2.29-3.56,2.29-3.52,0S47.18,27.05,47.15,29.33ZM44.31,32.4a1.33,1.33,0,0,1-2.66,0A1.33,1.33,0,0,1,44.31,32.4ZM41.7,26a1.77,1.77,0,0,1-3.53,0C38.14,23.7,41.73,23.7,41.7,26Zm-1.85,3.51a1.33,1.33,0,0,1-2.65,0A1.33,1.33,0,0,1,39.85,29.49Zm-1.26,2.82a1.1,1.1,0,0,1-2.2,0A1.1,1.1,0,0,1,38.59,32.31ZM37.46,35a1,1,0,0,1-2,0A1,1,0,0,1,37.46,35ZM35.4,24.61c0,2.29-3.56,2.29-3.52,0S35.43,22.32,35.4,24.61Zm-3.25,6.68a1.1,1.1,0,0,1,2.2,0A1.1,1.1,0,0,1,32.15,31.29Zm1.91,2.93a1,1,0,0,1-2,0A1,1,0,0,1,34.06,34.22Zm-2-5.91a1.33,1.33,0,0,1,2.66,0A1.33,1.33,0,0,1,32,28.31Zm-1.74,6.46a1,1,0,0,1-2,0A1,1,0,0,1,30.28,34.77Zm-1.37-5.68a1.33,1.33,0,0,1-2.66,0A1.33,1.33,0,0,1,28.91,29.09ZM28.4,25.5a1.77,1.77,0,0,1-3.53,0A1.77,1.77,0,0,1,28.4,25.5Zm-2.85,8.91a1.1,1.1,0,0,1-2.2,0A1.1,1.1,0,0,1,25.55,34.41ZM20.5,38.24a1.1,1.1,0,0,1,2.2,0A1.1,1.1,0,0,1,20.5,38.24Zm1,4.62a1.1,1.1,0,0,1-2.2,0A1.1,1.1,0,0,1,21.52,42.86Zm2.23.65a1,1,0,0,1-1.95,0A1,1,0,0,1,23.75,43.51Zm-1-3.72a1,1,0,0,1,1.95,0A1,1,0,0,1,22.75,39.79ZM23.87,32a1.33,1.33,0,0,1-2.65,0A1.33,1.33,0,0,1,23.87,32Zm-1.68-3.15c0,2.29-3.56,2.29-3.52,0S22.22,26.6,22.19,28.88ZM19,35.34a1.29,1.29,0,1,1,0,2.58,1.29,1.29,0,1,1,0-2.58Zm-.18,6.91a1.33,1.33,0,0,1-2.66,0A1.33,1.33,0,0,1,18.85,42.25Zm-1.11-7.92c0,2.28-3.56,2.28-3.53,0S17.77,32,17.74,34.33ZM13.61,55.09H12.34V48.6h1.27Zm-1.26-14c0-2.29,3.56-2.29,3.52,0S12.32,43.39,12.35,41.1Zm7.26,14H18.48l-2.57-4v4H14.64V48.6h1.13l2.57,4v-4h1.27Zm3,.06a3,3,0,0,1-2.37-.86l.82-.82A2.15,2.15,0,0,0,22.6,54c.75,0,1.15-.28,1.15-.8a.72.72,0,0,0-.2-.55,1,1,0,0,0-.57-.23l-.79-.11a2.19,2.19,0,0,1-1.26-.54,1.69,1.69,0,0,1-.46-1.27,2,2,0,0,1,2.26-2,2.79,2.79,0,0,1,2.1.76l-.8.79a1.84,1.84,0,0,0-1.34-.45c-.67,0-1,.38-1,.82a.66.66,0,0,0,.19.47,1.07,1.07,0,0,0,.6.25l.77.11a2.17,2.17,0,0,1,1.24.5,1.82,1.82,0,0,1,.5,1.38C25,54.44,23.94,55.15,22.58,55.15ZM25,36.73a1,1,0,0,1,1.95,0A1,1,0,0,1,25,36.73ZM27.44,32a1.1,1.1,0,0,1,2.2,0A1.1,1.1,0,0,1,27.44,32Zm7.09,32.24H29.46A2,2,0,0,0,30,65.77a1.87,1.87,0,0,0,1.38.53,2.4,2.4,0,0,0,1.77-.81l1.19,1a3.81,3.81,0,0,1-2.93,1.36,4.09,4.09,0,0,1-1.25-.2,3.23,3.23,0,0,1-.6-.28A3,3,0,0,1,29,67a3.32,3.32,0,0,1-.83-1.31,5.21,5.21,0,0,1-.36-2.1,6.1,6.1,0,0,1,.31-2.07,3.5,3.5,0,0,1,.78-1.32A3,3,0,0,1,30,59.51a3.49,3.49,0,0,1,1.17-.21,3.32,3.32,0,0,1,2.36.94,3.5,3.5,0,0,1,1,2.6Zm-6.82-9.08V39.49h6.53a3.5,3.5,0,0,1,2.83,1.16,4.63,4.63,0,0,1,1,3,4.23,4.23,0,0,1-.38,1.85,2.92,2.92,0,0,1-.57.79,3.83,3.83,0,0,1-.93.72v0a2.66,2.66,0,0,1,1.58,1.35,5.19,5.19,0,0,1,.5,2.26,4.83,4.83,0,0,1-1,3.21,3.12,3.12,0,0,1-2.52,1.24ZM39.48,67.79h-.72a2.25,2.25,0,0,1-1.47-.46,1.84,1.84,0,0,1-.61-1.57V56h1.63v9.62c0,.38.2.58.61.58h.56ZM38.4,37a1,1,0,0,1,2,0A1,1,0,0,1,38.4,37Zm4.17,17.63a4.45,4.45,0,0,1-1.17-.66,3.45,3.45,0,0,1-.84-1.31,5.41,5.41,0,0,1-.35-2.1,5.86,5.86,0,0,1,.31-2.07,3.5,3.5,0,0,1,.78-1.32,3,3,0,0,1,1.09-.72,3.44,3.44,0,0,1,1.17-.21,3.33,3.33,0,0,1,2.36.94,3.5,3.5,0,0,1,1,2.6v1.39H41.84a2,2,0,0,0,.57,1.54,1.86,1.86,0,0,0,1.37.53,2.4,2.4,0,0,0,1.78-.81l1.18,1a3.78,3.78,0,0,1-2.92,1.36A4,4,0,0,1,42.57,54.59Zm10.11,3.1H47.11v3.48h4.75v1.58H47.11v5H45.39V56h7.29Zm-.4-9.81a1.53,1.53,0,0,0-1.08.42,1.67,1.67,0,0,0-.51,1.33v5.06H49.06V46.3h1.63v.89h0a2.68,2.68,0,0,1,3.82-.35L53.35,48.3A1.69,1.69,0,0,0,52.28,47.88Zm8,16.35H55.22a2,2,0,0,0,.57,1.54,1.86,1.86,0,0,0,1.37.53,2.4,2.4,0,0,0,1.78-.81l1.18,1a3.78,3.78,0,0,1-2.92,1.36,4,4,0,0,1-1.25-.2A4.45,4.45,0,0,1,54.78,67a3.45,3.45,0,0,1-.84-1.31,5.41,5.41,0,0,1-.35-2.1,5.86,5.86,0,0,1,.31-2.07,3.5,3.5,0,0,1,.78-1.32,3,3,0,0,1,1.09-.72,3.44,3.44,0,0,1,1.17-.21,3.29,3.29,0,0,1,2.35.94,3.47,3.47,0,0,1,1,2.6Zm1.46-9.54H60.12v-5a1.82,1.82,0,0,0-.45-1.34,1.49,1.49,0,0,0-1.15-.47,1.52,1.52,0,0,0-1.16.47,1.79,1.79,0,0,0-.46,1.34v5H55.26V46.3H56.9v.89h0a2.58,2.58,0,0,1,2.11-1,2.71,2.71,0,0,1,1.84.73,2.88,2.88,0,0,1,.87,2.18Zm5,6.71A1.69,1.69,0,0,0,65.66,61a1.53,1.53,0,0,0-1.08.42,1.67,1.67,0,0,0-.51,1.33v5.06H62.44V59.4h1.63v.89h0a2.68,2.68,0,0,1,3.82-.35ZM68.55,54a1.4,1.4,0,0,1-.7.63,3.45,3.45,0,0,1-1.3.21,2.93,2.93,0,0,1-2.1-.75,2.37,2.37,0,0,1-.77-1.82,2.41,2.41,0,0,1,.67-1.75,2.66,2.66,0,0,1,2-.73h2.26v-.88c0-.74-.54-1.1-1.66-1.08a2.84,2.84,0,0,0-1,.13,1.19,1.19,0,0,0-.57.52l-1.29-1a3.1,3.1,0,0,1,2.75-1.22,4.23,4.23,0,0,1,2.44.59A2.49,2.49,0,0,1,70.21,49v5.73H68.58V54Zm4.78,7.45A1.67,1.67,0,0,0,72.26,61a1.5,1.5,0,0,0-1.07.42,1.64,1.64,0,0,0-.52,1.33v5.06H69V59.4h1.63v.89h0a2.69,2.69,0,0,1,3.83-.35Zm.09-7.26a2,2,0,0,1-.57-1.52v-5H72V46.3h.81V43.75h1.63V46.3h1.19v1.29H74.48v4.89c0,.43.19.64.58.63h.61v1.58h-.85A1.87,1.87,0,0,1,73.42,54.14Zm8.22,10.09H76.57a2,2,0,0,0,.57,1.54,1.87,1.87,0,0,0,1.38.53,2.4,2.4,0,0,0,1.77-.81l1.19,1a3.81,3.81,0,0,1-2.93,1.36,4,4,0,0,1-1.25-.2A4.45,4.45,0,0,1,76.13,67a3.45,3.45,0,0,1-.84-1.31,5.41,5.41,0,0,1-.35-2.1,5.86,5.86,0,0,1,.31-2.07A3.5,3.5,0,0,1,76,60.23a3,3,0,0,1,1.09-.72,3.44,3.44,0,0,1,1.17-.21,3.33,3.33,0,0,1,2.36.94,3.5,3.5,0,0,1,1,2.6ZM87,61a1.53,1.53,0,0,0-1.08.42,1.67,1.67,0,0,0-.51,1.33v5.06H83.79V59.4h1.63v.89h0a2.68,2.68,0,0,1,3.82-.35L88.08,61.4A1.67,1.67,0,0,0,87,61Z" transform="translate(-2.45 -1.53)"></path>
    <path class="cls-2" d="M119.38,44.92V24h2V44.92Z" transform="translate(-2.45 -1.53)"></path>
    <path class="cls-2" d="M131.53,44.92h-1.74v-15h1.74V32a9.08,9.08,0,0,1,2.28-1.87,5.11,5.11,0,0,1,2.56-.63A6.61,6.61,0,0,1,139,30,4.33,4.33,0,0,1,141,31.64a3.79,3.79,0,0,1,.63,1.49,11.76,11.76,0,0,1,.13,2v9.83H140v-9.8a4.47,4.47,0,0,0-.91-3.06,3.85,3.85,0,0,0-3-1,4.23,4.23,0,0,0-2.62.84A4.35,4.35,0,0,0,131.91,34a5.35,5.35,0,0,0-.31,1.27,14,14,0,0,0-.07,1.57Z" transform="translate(-2.45 -1.53)"></path>
    <path class="cls-2" d="M150.23,40.22A4.43,4.43,0,0,0,151.7,43a4.88,4.88,0,0,0,3,.81,4.12,4.12,0,0,0,2.75-.81,2.49,2.49,0,0,0,1-2,2.14,2.14,0,0,0-.33-1.22,2.28,2.28,0,0,0-.92-.78,7.3,7.3,0,0,0-1.27-.5c-.47-.13-1-.27-1.74-.4-.87-.18-1.59-.35-2.15-.51a7.18,7.18,0,0,1-1.58-.68,3.29,3.29,0,0,1-1.19-1.21,3.69,3.69,0,0,1-.45-1.9,3.87,3.87,0,0,1,1.42-3.1,5.86,5.86,0,0,1,3.86-1.19,6.44,6.44,0,0,1,4,1.13,5.12,5.12,0,0,1,1.8,3.6h-1.77a3.39,3.39,0,0,0-1.27-2.41,4.7,4.7,0,0,0-2.79-.75,4,4,0,0,0-2.51.69,2.29,2.29,0,0,0-.88,1.89,1.94,1.94,0,0,0,.33,1.14,2.42,2.42,0,0,0,.9.77,7.79,7.79,0,0,0,1.22.5c.43.13,1,.29,1.75.46.91.21,1.64.41,2.18.58a6.86,6.86,0,0,1,1.58.74,3.68,3.68,0,0,1,1.22,1.23A3.62,3.62,0,0,1,160.3,41a3.68,3.68,0,0,1-1.68,3.23,7.82,7.82,0,0,1-4.44,1.15,5.68,5.68,0,0,1-4.09-1.45,5.23,5.23,0,0,1-1.62-3.66Z" transform="translate(-2.45 -1.53)"></path>
    <path class="cls-2" d="M172.3,45a1.35,1.35,0,0,1-.32.08,7,7,0,0,1-1.68.27,2.67,2.67,0,0,1-2-.69,3.24,3.24,0,0,1-.67-2.3v-11h-2.11V29.9h2.11V25.72h1.74V29.9h2.82v1.45h-2.82V41.64a3.86,3.86,0,0,0,.25,1.68c.17.29.59.44,1.26.44a6.18,6.18,0,0,0,1.42-.2Z" transform="translate(-2.45 -1.53)"></path>
    <path class="cls-2" d="M178.57,26.62V24h1.91v2.58Zm.08,18.3v-15h1.74v15Z" transform="translate(-2.45 -1.53)"></path>
    <path class="cls-2" d="M193.42,45a1.52,1.52,0,0,1-.32.08,7.13,7.13,0,0,1-1.69.27,2.67,2.67,0,0,1-2-.69,3.24,3.24,0,0,1-.66-2.3v-11h-2.12V29.9h2.12V25.72h1.74V29.9h2.81v1.45h-2.81V41.64a3.9,3.9,0,0,0,.24,1.68c.17.29.59.44,1.26.44a6.33,6.33,0,0,0,1.43-.2Z" transform="translate(-2.45 -1.53)"></path>
    <path class="cls-2" d="M209.68,29.9h1.74v15h-1.74V42.83a10.3,10.3,0,0,1-2.07,1.83,5.09,5.09,0,0,1-2.77.67,6.56,6.56,0,0,1-2.48-.42,4.13,4.13,0,0,1-1.65-1.16,4.85,4.85,0,0,1-.92-1.74,8.12,8.12,0,0,1-.29-2.22V29.9h1.75v9.86a4.3,4.3,0,0,0,.92,3,3.82,3.82,0,0,0,2.93,1,4,4,0,0,0,3.35-1.58,6.48,6.48,0,0,0,1.23-4.1Z" transform="translate(-2.45 -1.53)"></path>
    <path class="cls-2" d="M224.21,45a1.35,1.35,0,0,1-.32.08,7,7,0,0,1-1.68.27,2.67,2.67,0,0,1-2-.69,3.24,3.24,0,0,1-.67-2.3v-11h-2.11V29.9h2.11V25.72h1.74V29.9h2.82v1.45h-2.82V41.64a3.86,3.86,0,0,0,.25,1.68c.16.29.59.44,1.26.44a6.18,6.18,0,0,0,1.42-.2Z" transform="translate(-2.45 -1.53)"></path>
    <path class="cls-2" d="M134.82,53.5a5.31,5.31,0,0,1,1,3.19,4.68,4.68,0,0,1-1,3.07A5.07,5.07,0,0,1,133.22,61a4.67,4.67,0,0,1,2.41,1.84,5.54,5.54,0,0,1,.81,3.06,6.14,6.14,0,0,1-.93,3.33A5.67,5.67,0,0,1,134,70.82a5.73,5.73,0,0,1-2.35,1.05,15.16,15.16,0,0,1-3,.28h-9.41V51.28h10.09C132,51.31,133.76,52.06,134.82,53.5Zm-11.33,1.4v4.6h5.07a4.28,4.28,0,0,0,2.21-.51,2,2,0,0,0,.84-1.84,1.86,1.86,0,0,0-1.12-1.92A7.7,7.7,0,0,0,128,54.9Zm0,8.06v5.56h5.06a5.06,5.06,0,0,0,2.12-.36A2.65,2.65,0,0,0,132,65.55a2.25,2.25,0,0,0-1.33-2.24,5.44,5.44,0,0,0-2.09-.35Z" transform="translate(-2.45 -1.53)"></path>
    <path class="cls-2" d="M153.09,57a6.27,6.27,0,0,1,2.66,2.28A7.4,7.4,0,0,1,157,62.5a19.36,19.36,0,0,1,.14,3.06H145.88a3.7,3.7,0,0,0,1.61,3.26,4.09,4.09,0,0,0,2.23.58,3.14,3.14,0,0,0,3.07-1.77h4.12a5,5,0,0,1-1.5,2.79,7.5,7.5,0,0,1-5.81,2.25,8.38,8.38,0,0,1-5.43-1.9q-2.35-1.89-2.36-6.18a8.36,8.36,0,0,1,2.13-6.15,7.48,7.48,0,0,1,5.52-2.14A8.69,8.69,0,0,1,153.09,57Zm-6,3.48A4.17,4.17,0,0,0,146,62.9h7a3.38,3.38,0,0,0-1.08-2.44,3.55,3.55,0,0,0-2.39-.83A3.23,3.23,0,0,0,147.05,60.51Z" transform="translate(-2.45 -1.53)"></path>
    <path class="cls-2" d="M170.89,56.35a2.18,2.18,0,0,0,.35,0v4.14l-.68-.06h-.48c-1.62,0-2.72.53-3.27,1.58a6.21,6.21,0,0,0-.47,2.75v7.38h-4.06V56.71h3.85V59.4a8.5,8.5,0,0,1,1.63-2.11,4.41,4.41,0,0,1,2.94-.94Z" transform="translate(-2.45 -1.53)"></path>
    <path class="cls-2" d="M189.21,57.6a5.12,5.12,0,0,1,1.52,4.16V72.15h-4.14V62.76a4.43,4.43,0,0,0-.32-1.87A2.27,2.27,0,0,0,184,59.7a2.79,2.79,0,0,0-2.8,1.74,6.1,6.1,0,0,0-.39,2.35v8.36h-4V56.74h3.91V59a7,7,0,0,1,1.47-1.71,5.09,5.09,0,0,1,3.14-.93A5.89,5.89,0,0,1,189.21,57.6Z" transform="translate(-2.45 -1.53)"></path>
    <path class="cls-2" d="M203.75,62.76a6.36,6.36,0,0,0,1.62-.35,1.22,1.22,0,0,0,.87-1.15,1.37,1.37,0,0,0-.67-1.31,4.25,4.25,0,0,0-2-.36,2.53,2.53,0,0,0-2.05.71,2.94,2.94,0,0,0-.58,1.41h-3.89a5.77,5.77,0,0,1,1.14-3.32q1.61-2,5.51-2a9.87,9.87,0,0,1,4.53,1,3.87,3.87,0,0,1,2,3.8v7.08c0,.49,0,1.08,0,1.78a2.31,2.31,0,0,0,.24,1.08,1.44,1.44,0,0,0,.6.46v.6h-4.39a5,5,0,0,1-.26-.88c0-.27-.08-.58-.11-.93a8.34,8.34,0,0,1-1.94,1.54,5.84,5.84,0,0,1-3,.75,5.08,5.08,0,0,1-3.48-1.2A4.22,4.22,0,0,1,196.59,68a4.41,4.41,0,0,1,2.21-4.12,10,10,0,0,1,3.57-1Zm2.47,1.88a4.73,4.73,0,0,1-.78.39,6.83,6.83,0,0,1-1.08.28l-.92.17a6,6,0,0,0-1.86.55,1.86,1.86,0,0,0-1,1.72,1.79,1.79,0,0,0,.58,1.49,2.2,2.2,0,0,0,1.42.46,4.2,4.2,0,0,0,2.43-.77,3.21,3.21,0,0,0,1.16-2.78Z" transform="translate(-2.45 -1.53)"></path>
    <path class="cls-2" d="M215.34,59.73V56.86h2.16V52.55h4v4.31H224v2.87h-2.51v8.16a1.85,1.85,0,0,0,.24,1.18c.16.16.65.23,1.47.23h.39l.41,0v3l-1.92.07q-2.85.11-3.9-1a2.93,2.93,0,0,1-.68-2.14v-9.5Z" transform="translate(-2.45 -1.53)"></path>
    <path class="cls-2" d="M251,57a6.23,6.23,0,0,1,2.67,2.28,7.66,7.66,0,0,1,1.23,3.19,19.6,19.6,0,0,1,.13,3.06H243.81a3.71,3.71,0,0,0,1.62,3.26,4.06,4.06,0,0,0,2.22.58,3.36,3.36,0,0,0,2.24-.71,3.27,3.27,0,0,0,.83-1.06h4.12a4.94,4.94,0,0,1-1.49,2.79,7.52,7.52,0,0,1-5.81,2.25,8.41,8.41,0,0,1-5.44-1.9q-2.35-1.89-2.35-6.18a8.36,8.36,0,0,1,2.13-6.15,7.44,7.44,0,0,1,5.51-2.14A8.62,8.62,0,0,1,251,57Zm-6,3.48a4.25,4.25,0,0,0-1.08,2.39h7a3.38,3.38,0,0,0-1.07-2.44,3.55,3.55,0,0,0-2.39-.83A3.23,3.23,0,0,0,245,60.51Z" transform="translate(-2.45 -1.53)"></path>
    <path class="cls-2" d="M264.38,72.15h-4V51.28h4Z" transform="translate(-2.45 -1.53)"></path>
    <path class="cls-2" d="M283,51.31H297.9V55H287.35v4.8h9.25V63.4h-9.25v8.75H283Z" transform="translate(-2.45 -1.53)"></path>
    <path class="cls-2" d="M313.63,57a6.27,6.27,0,0,1,2.66,2.28,7.66,7.66,0,0,1,1.23,3.19,19.36,19.36,0,0,1,.14,3.06H306.41A3.71,3.71,0,0,0,308,68.82a4.06,4.06,0,0,0,2.22.58,3.36,3.36,0,0,0,2.24-.71,3.27,3.27,0,0,0,.83-1.06h4.12A4.94,4.94,0,0,1,316,70.42a7.5,7.5,0,0,1-5.81,2.25,8.38,8.38,0,0,1-5.43-1.9c-1.58-1.26-2.36-3.32-2.36-6.18a8.36,8.36,0,0,1,2.13-6.15A7.44,7.44,0,0,1,310,56.3,8.69,8.69,0,0,1,313.63,57Zm-6,3.48a4.25,4.25,0,0,0-1.08,2.39h7a3.42,3.42,0,0,0-1.08-2.44,3.55,3.55,0,0,0-2.39-.83A3.23,3.23,0,0,0,307.59,60.51Z" transform="translate(-2.45 -1.53)"></path>
    <path class="cls-2" d="M331.43,56.35a2.18,2.18,0,0,0,.35,0v4.14l-.68-.06h-.48c-1.63,0-2.72.53-3.27,1.58a6.21,6.21,0,0,0-.47,2.75v7.38h-4.06V56.71h3.85V59.4a8.77,8.77,0,0,1,1.62-2.11,4.46,4.46,0,0,1,2.95-.94Z" transform="translate(-2.45 -1.53)"></path>
    <path class="cls-2" d="M345.88,56.35a2.18,2.18,0,0,0,.35,0v4.14l-.68-.06h-.49A3.36,3.36,0,0,0,341.79,62a6.23,6.23,0,0,0-.46,2.75v7.38h-4.07V56.71h3.85V59.4a9,9,0,0,1,1.63-2.11,4.46,4.46,0,0,1,2.95-.94Z" transform="translate(-2.45 -1.53)"></path>
    <path class="cls-2" d="M361.81,57a6.23,6.23,0,0,1,2.67,2.28,7.66,7.66,0,0,1,1.23,3.19,20.93,20.93,0,0,1,.13,3.06H354.6a3.7,3.7,0,0,0,1.61,3.26,4.09,4.09,0,0,0,2.23.58,3.14,3.14,0,0,0,3.07-1.77h4.12a5,5,0,0,1-1.5,2.79,7.5,7.5,0,0,1-5.8,2.25,8.39,8.39,0,0,1-5.44-1.9q-2.36-1.89-2.36-6.18a8.36,8.36,0,0,1,2.13-6.15,7.48,7.48,0,0,1,5.52-2.14A8.69,8.69,0,0,1,361.81,57Zm-6,3.48a4.17,4.17,0,0,0-1.07,2.39h6.95a3.35,3.35,0,0,0-1.08-2.44,3.55,3.55,0,0,0-2.39-.83A3.23,3.23,0,0,0,355.77,60.51Z" transform="translate(-2.45 -1.53)"></path>
    <path class="cls-2" d="M379.61,56.35a2.28,2.28,0,0,0,.35,0v4.14l-.68-.06h-.48A3.36,3.36,0,0,0,375.53,62a6.21,6.21,0,0,0-.47,2.75v7.38H371V56.71h3.85V59.4a8.75,8.75,0,0,1,1.63-2.11,4.41,4.41,0,0,1,2.94-.94Z" transform="translate(-2.45 -1.53)"></path>
  </g>
</svg>
